<mxfile host="app.diagrams.net" agent="Mozilla/5.0 (Windows NT 10.0; Win64; x64) AppleWebKit/537.36 (KHTML, like Gecko) Chrome/136.0.0.0 Safari/537.36" version="27.0.9">
  <diagram name="Page-1" id="50NBQbaFH9121cileKbn">
    <mxGraphModel dx="1505" dy="1476" grid="1" gridSize="10" guides="1" tooltips="1" connect="1" arrows="1" fold="1" page="1" pageScale="1" pageWidth="850" pageHeight="1100" math="0" shadow="0">
      <root>
        <mxCell id="0" />
        <mxCell id="1" parent="0" />
        <mxCell id="IqnL9jD0EgzMoAM63mxF-1" value="Students" style="rounded=0;whiteSpace=wrap;html=1;" parent="1" vertex="1">
          <mxGeometry x="80" y="150" width="120" height="50" as="geometry" />
        </mxCell>
        <mxCell id="IqnL9jD0EgzMoAM63mxF-4" value="Scholarship" style="rounded=0;whiteSpace=wrap;html=1;" parent="1" vertex="1">
          <mxGeometry x="680" y="150" width="120" height="50" as="geometry" />
        </mxCell>
        <mxCell id="IqnL9jD0EgzMoAM63mxF-5" value="Made for" style="rhombus;whiteSpace=wrap;html=1;" parent="1" vertex="1">
          <mxGeometry x="640" y="255" width="65" height="60" as="geometry" />
        </mxCell>
        <mxCell id="IqnL9jD0EgzMoAM63mxF-7" value="Submit" style="rhombus;whiteSpace=wrap;html=1;" parent="1" vertex="1">
          <mxGeometry x="170" y="255" width="60" height="60" as="geometry" />
        </mxCell>
        <mxCell id="IqnL9jD0EgzMoAM63mxF-8" value="Applications" style="shape=ext;margin=3;double=1;whiteSpace=wrap;html=1;align=center;" parent="1" vertex="1">
          <mxGeometry x="390" y="260" width="120" height="50" as="geometry" />
        </mxCell>
        <mxCell id="IqnL9jD0EgzMoAM63mxF-11" value="phone no" style="ellipse;shape=doubleEllipse;margin=3;whiteSpace=wrap;html=1;align=center;" parent="1" vertex="1">
          <mxGeometry x="22.5" y="-10" width="85" height="40" as="geometry" />
        </mxCell>
        <mxCell id="IqnL9jD0EgzMoAM63mxF-12" value="email" style="ellipse;shape=doubleEllipse;margin=3;whiteSpace=wrap;html=1;align=center;rotation=-5;" parent="1" vertex="1">
          <mxGeometry x="-20" y="40" width="90.42" height="39.55" as="geometry" />
        </mxCell>
        <mxCell id="IqnL9jD0EgzMoAM63mxF-13" value="student_ID" style="ellipse;whiteSpace=wrap;html=1;align=center;fontStyle=4;rotation=-15;" parent="1" vertex="1">
          <mxGeometry x="-50" y="100" width="90" height="40" as="geometry" />
        </mxCell>
        <mxCell id="IqnL9jD0EgzMoAM63mxF-14" value="Program" style="ellipse;whiteSpace=wrap;html=1;align=center;" parent="1" vertex="1">
          <mxGeometry x="120" y="-20" width="90" height="30" as="geometry" />
        </mxCell>
        <mxCell id="IqnL9jD0EgzMoAM63mxF-15" value="address" style="ellipse;whiteSpace=wrap;html=1;align=center;rotation=0;" parent="1" vertex="1">
          <mxGeometry x="200" y="-50" width="90" height="30" as="geometry" />
        </mxCell>
        <mxCell id="IqnL9jD0EgzMoAM63mxF-17" value="semester" style="ellipse;whiteSpace=wrap;html=1;align=center;rotation=0;" parent="1" vertex="1">
          <mxGeometry x="290" y="49.55" width="90" height="30" as="geometry" />
        </mxCell>
        <mxCell id="IqnL9jD0EgzMoAM63mxF-20" value="name" style="ellipse;whiteSpace=wrap;html=1;align=center;dashed=1;" parent="1" vertex="1">
          <mxGeometry x="210" y="70" width="80" height="30" as="geometry" />
        </mxCell>
        <mxCell id="IqnL9jD0EgzMoAM63mxF-23" value="" style="endArrow=none;html=1;rounded=0;entryX=0;entryY=0;entryDx=0;entryDy=0;exitX=0.634;exitY=1.021;exitDx=0;exitDy=0;exitPerimeter=0;" parent="1" source="IqnL9jD0EgzMoAM63mxF-13" target="IqnL9jD0EgzMoAM63mxF-1" edge="1">
          <mxGeometry relative="1" as="geometry">
            <mxPoint y="115" as="sourcePoint" />
            <mxPoint x="160" y="115" as="targetPoint" />
          </mxGeometry>
        </mxCell>
        <mxCell id="IqnL9jD0EgzMoAM63mxF-24" value="" style="endArrow=none;html=1;rounded=0;exitX=0.5;exitY=1;exitDx=0;exitDy=0;entryX=0.106;entryY=-0.067;entryDx=0;entryDy=0;entryPerimeter=0;" parent="1" source="IqnL9jD0EgzMoAM63mxF-12" target="IqnL9jD0EgzMoAM63mxF-1" edge="1">
          <mxGeometry relative="1" as="geometry">
            <mxPoint x="190" y="190" as="sourcePoint" />
            <mxPoint x="350" y="190" as="targetPoint" />
          </mxGeometry>
        </mxCell>
        <mxCell id="IqnL9jD0EgzMoAM63mxF-25" value="" style="endArrow=none;html=1;rounded=0;entryX=0.596;entryY=1.008;entryDx=0;entryDy=0;entryPerimeter=0;exitX=0.25;exitY=0;exitDx=0;exitDy=0;" parent="1" source="IqnL9jD0EgzMoAM63mxF-1" target="IqnL9jD0EgzMoAM63mxF-11" edge="1">
          <mxGeometry relative="1" as="geometry">
            <mxPoint x="190" y="190" as="sourcePoint" />
            <mxPoint x="350" y="190" as="targetPoint" />
          </mxGeometry>
        </mxCell>
        <mxCell id="IqnL9jD0EgzMoAM63mxF-26" value="" style="endArrow=none;html=1;rounded=0;exitX=0.396;exitY=1;exitDx=0;exitDy=0;exitPerimeter=0;entryX=0.394;entryY=-0.04;entryDx=0;entryDy=0;entryPerimeter=0;" parent="1" source="IqnL9jD0EgzMoAM63mxF-16" target="IqnL9jD0EgzMoAM63mxF-1" edge="1">
          <mxGeometry relative="1" as="geometry">
            <mxPoint x="310" y="250" as="sourcePoint" />
            <mxPoint x="470" y="250" as="targetPoint" />
          </mxGeometry>
        </mxCell>
        <mxCell id="IqnL9jD0EgzMoAM63mxF-27" value="" style="endArrow=none;html=1;rounded=0;entryX=0.5;entryY=1;entryDx=0;entryDy=0;exitX=0.578;exitY=-0.053;exitDx=0;exitDy=0;exitPerimeter=0;" parent="1" source="IqnL9jD0EgzMoAM63mxF-1" target="IqnL9jD0EgzMoAM63mxF-14" edge="1">
          <mxGeometry relative="1" as="geometry">
            <mxPoint x="170" y="210" as="sourcePoint" />
            <mxPoint x="330" y="210" as="targetPoint" />
          </mxGeometry>
        </mxCell>
        <mxCell id="IqnL9jD0EgzMoAM63mxF-16" value="cgpa" style="ellipse;whiteSpace=wrap;html=1;align=center;" parent="1" vertex="1">
          <mxGeometry x="95" y="49.55" width="90" height="30" as="geometry" />
        </mxCell>
        <mxCell id="IqnL9jD0EgzMoAM63mxF-28" value="" style="endArrow=none;html=1;rounded=0;exitX=0.75;exitY=0;exitDx=0;exitDy=0;" parent="1" source="IqnL9jD0EgzMoAM63mxF-1" edge="1">
          <mxGeometry relative="1" as="geometry">
            <mxPoint x="250" y="250" as="sourcePoint" />
            <mxPoint x="220" y="50" as="targetPoint" />
          </mxGeometry>
        </mxCell>
        <mxCell id="IqnL9jD0EgzMoAM63mxF-30" value="" style="endArrow=none;html=1;rounded=0;exitX=0;exitY=1;exitDx=0;exitDy=0;entryX=0.878;entryY=-0.027;entryDx=0;entryDy=0;entryPerimeter=0;" parent="1" source="IqnL9jD0EgzMoAM63mxF-20" target="IqnL9jD0EgzMoAM63mxF-1" edge="1">
          <mxGeometry relative="1" as="geometry">
            <mxPoint x="230" y="110" as="sourcePoint" />
            <mxPoint x="390" y="110" as="targetPoint" />
          </mxGeometry>
        </mxCell>
        <mxCell id="IqnL9jD0EgzMoAM63mxF-31" value="" style="endArrow=none;html=1;rounded=0;exitX=0.5;exitY=1;exitDx=0;exitDy=0;entryX=1;entryY=0;entryDx=0;entryDy=0;" parent="1" source="IqnL9jD0EgzMoAM63mxF-17" target="IqnL9jD0EgzMoAM63mxF-1" edge="1">
          <mxGeometry relative="1" as="geometry">
            <mxPoint x="300" y="140" as="sourcePoint" />
            <mxPoint x="460" y="140" as="targetPoint" />
          </mxGeometry>
        </mxCell>
        <mxCell id="IqnL9jD0EgzMoAM63mxF-32" value="application_ID" style="ellipse;whiteSpace=wrap;html=1;align=center;fontStyle=4;" parent="1" vertex="1">
          <mxGeometry x="400" y="160" width="90" height="30" as="geometry" />
        </mxCell>
        <mxCell id="IqnL9jD0EgzMoAM63mxF-33" value="submission date" style="ellipse;whiteSpace=wrap;html=1;align=center;rotation=-15;" parent="1" vertex="1">
          <mxGeometry x="310" y="200" width="90" height="30" as="geometry" />
        </mxCell>
        <mxCell id="IqnL9jD0EgzMoAM63mxF-34" value="document path" style="ellipse;whiteSpace=wrap;html=1;align=center;rotation=15;" parent="1" vertex="1">
          <mxGeometry x="500" y="200" width="89.83" height="31.29" as="geometry" />
        </mxCell>
        <mxCell id="IqnL9jD0EgzMoAM63mxF-35" value="status" style="ellipse;whiteSpace=wrap;html=1;align=center;" parent="1" vertex="1">
          <mxGeometry x="410" y="360" width="90" height="30" as="geometry" />
        </mxCell>
        <mxCell id="IqnL9jD0EgzMoAM63mxF-36" value="scholarship_ID" style="ellipse;whiteSpace=wrap;html=1;align=center;rotation=-15;" parent="1" vertex="1">
          <mxGeometry x="510" y="330" width="90" height="30" as="geometry" />
        </mxCell>
        <mxCell id="IqnL9jD0EgzMoAM63mxF-37" value="student_ID" style="ellipse;whiteSpace=wrap;html=1;align=center;rotation=15;" parent="1" vertex="1">
          <mxGeometry x="310" y="330" width="90" height="30" as="geometry" />
        </mxCell>
        <mxCell id="IqnL9jD0EgzMoAM63mxF-42" value="" style="endArrow=none;html=1;rounded=0;exitX=0.5;exitY=1;exitDx=0;exitDy=0;entryX=0.5;entryY=0;entryDx=0;entryDy=0;" parent="1" source="IqnL9jD0EgzMoAM63mxF-32" target="IqnL9jD0EgzMoAM63mxF-8" edge="1">
          <mxGeometry relative="1" as="geometry">
            <mxPoint x="375" y="190" as="sourcePoint" />
            <mxPoint x="240" y="260" as="targetPoint" />
          </mxGeometry>
        </mxCell>
        <mxCell id="IqnL9jD0EgzMoAM63mxF-43" value="" style="endArrow=none;html=1;rounded=0;entryX=0.75;entryY=0;entryDx=0;entryDy=0;" parent="1" target="IqnL9jD0EgzMoAM63mxF-8" edge="1">
          <mxGeometry relative="1" as="geometry">
            <mxPoint x="530" y="230" as="sourcePoint" />
            <mxPoint x="440" y="270" as="targetPoint" />
          </mxGeometry>
        </mxCell>
        <mxCell id="IqnL9jD0EgzMoAM63mxF-44" value="" style="endArrow=none;html=1;rounded=0;exitX=0.5;exitY=0;exitDx=0;exitDy=0;entryX=0.5;entryY=1;entryDx=0;entryDy=0;" parent="1" source="IqnL9jD0EgzMoAM63mxF-35" target="IqnL9jD0EgzMoAM63mxF-8" edge="1">
          <mxGeometry relative="1" as="geometry">
            <mxPoint x="505" y="280" as="sourcePoint" />
            <mxPoint x="370" y="350" as="targetPoint" />
          </mxGeometry>
        </mxCell>
        <mxCell id="IqnL9jD0EgzMoAM63mxF-45" value="" style="endArrow=none;html=1;rounded=0;exitX=0.194;exitY=1.013;exitDx=0;exitDy=0;entryX=0.667;entryY=0.009;entryDx=0;entryDy=0;exitPerimeter=0;entryPerimeter=0;" parent="1" source="IqnL9jD0EgzMoAM63mxF-8" target="IqnL9jD0EgzMoAM63mxF-37" edge="1">
          <mxGeometry relative="1" as="geometry">
            <mxPoint x="525" y="350" as="sourcePoint" />
            <mxPoint x="390" y="420" as="targetPoint" />
          </mxGeometry>
        </mxCell>
        <mxCell id="IqnL9jD0EgzMoAM63mxF-46" value="" style="endArrow=none;html=1;rounded=0;exitX=0.839;exitY=0.947;exitDx=0;exitDy=0;entryX=0.421;entryY=0.057;entryDx=0;entryDy=0;exitPerimeter=0;entryPerimeter=0;" parent="1" source="IqnL9jD0EgzMoAM63mxF-8" target="IqnL9jD0EgzMoAM63mxF-36" edge="1">
          <mxGeometry relative="1" as="geometry">
            <mxPoint x="545" y="450" as="sourcePoint" />
            <mxPoint x="410" y="520" as="targetPoint" />
          </mxGeometry>
        </mxCell>
        <mxCell id="IqnL9jD0EgzMoAM63mxF-47" value="" style="endArrow=none;html=1;rounded=0;exitX=0.618;exitY=1.112;exitDx=0;exitDy=0;entryX=0.183;entryY=-0.053;entryDx=0;entryDy=0;exitPerimeter=0;entryPerimeter=0;" parent="1" source="IqnL9jD0EgzMoAM63mxF-33" target="IqnL9jD0EgzMoAM63mxF-8" edge="1">
          <mxGeometry relative="1" as="geometry">
            <mxPoint x="525" y="300" as="sourcePoint" />
            <mxPoint x="390" y="370" as="targetPoint" />
          </mxGeometry>
        </mxCell>
        <mxCell id="IqnL9jD0EgzMoAM63mxF-49" value="description" style="ellipse;whiteSpace=wrap;html=1;align=center;" parent="1" vertex="1">
          <mxGeometry x="729" y="30" width="90" height="30" as="geometry" />
        </mxCell>
        <mxCell id="IqnL9jD0EgzMoAM63mxF-50" value="scholarship_ID" style="ellipse;whiteSpace=wrap;html=1;align=center;fontStyle=4;" parent="1" vertex="1">
          <mxGeometry x="660" y="70" width="100" height="40" as="geometry" />
        </mxCell>
        <mxCell id="IqnL9jD0EgzMoAM63mxF-53" value="title" style="ellipse;whiteSpace=wrap;html=1;align=center;rotation=-15;" parent="1" vertex="1">
          <mxGeometry x="580" y="44.55" width="90" height="40" as="geometry" />
        </mxCell>
        <mxCell id="IqnL9jD0EgzMoAM63mxF-55" value="deadline" style="ellipse;whiteSpace=wrap;html=1;align=center;" parent="1" vertex="1">
          <mxGeometry x="830" y="70" width="90" height="40" as="geometry" />
        </mxCell>
        <mxCell id="IqnL9jD0EgzMoAM63mxF-56" value="eligibility" style="ellipse;whiteSpace=wrap;html=1;align=center;" parent="1" vertex="1">
          <mxGeometry x="815" width="85" height="40" as="geometry" />
        </mxCell>
        <mxCell id="IqnL9jD0EgzMoAM63mxF-57" value="" style="endArrow=none;html=1;rounded=0;entryX=0.5;entryY=1;entryDx=0;entryDy=0;exitX=0;exitY=0;exitDx=0;exitDy=0;" parent="1" source="IqnL9jD0EgzMoAM63mxF-4" target="IqnL9jD0EgzMoAM63mxF-53" edge="1">
          <mxGeometry relative="1" as="geometry">
            <mxPoint x="440" y="140" as="sourcePoint" />
            <mxPoint x="600" y="140" as="targetPoint" />
          </mxGeometry>
        </mxCell>
        <mxCell id="IqnL9jD0EgzMoAM63mxF-58" value="" style="endArrow=none;html=1;rounded=0;entryX=0.5;entryY=1;entryDx=0;entryDy=0;exitX=0.25;exitY=0;exitDx=0;exitDy=0;" parent="1" source="IqnL9jD0EgzMoAM63mxF-4" target="IqnL9jD0EgzMoAM63mxF-50" edge="1">
          <mxGeometry relative="1" as="geometry">
            <mxPoint x="720" y="206" as="sourcePoint" />
            <mxPoint x="670" y="140" as="targetPoint" />
          </mxGeometry>
        </mxCell>
        <mxCell id="IqnL9jD0EgzMoAM63mxF-59" value="" style="endArrow=none;html=1;rounded=0;entryX=0.5;entryY=1;entryDx=0;entryDy=0;exitX=0.578;exitY=-0.027;exitDx=0;exitDy=0;exitPerimeter=0;" parent="1" source="IqnL9jD0EgzMoAM63mxF-4" target="IqnL9jD0EgzMoAM63mxF-49" edge="1">
          <mxGeometry relative="1" as="geometry">
            <mxPoint x="740" y="160" as="sourcePoint" />
            <mxPoint x="740" y="120" as="targetPoint" />
          </mxGeometry>
        </mxCell>
        <mxCell id="IqnL9jD0EgzMoAM63mxF-60" value="" style="endArrow=none;html=1;rounded=0;entryX=0.422;entryY=1.05;entryDx=0;entryDy=0;exitX=1;exitY=0;exitDx=0;exitDy=0;entryPerimeter=0;" parent="1" source="IqnL9jD0EgzMoAM63mxF-4" target="IqnL9jD0EgzMoAM63mxF-55" edge="1">
          <mxGeometry relative="1" as="geometry">
            <mxPoint x="860" y="200" as="sourcePoint" />
            <mxPoint x="860" y="160" as="targetPoint" />
          </mxGeometry>
        </mxCell>
        <mxCell id="IqnL9jD0EgzMoAM63mxF-61" value="" style="endArrow=none;html=1;rounded=0;entryX=0.302;entryY=0.967;entryDx=0;entryDy=0;exitX=0.883;exitY=0.013;exitDx=0;exitDy=0;entryPerimeter=0;exitPerimeter=0;" parent="1" source="IqnL9jD0EgzMoAM63mxF-4" target="IqnL9jD0EgzMoAM63mxF-56" edge="1">
          <mxGeometry relative="1" as="geometry">
            <mxPoint x="800" y="190" as="sourcePoint" />
            <mxPoint x="800" y="150" as="targetPoint" />
          </mxGeometry>
        </mxCell>
        <mxCell id="IqnL9jD0EgzMoAM63mxF-62" value="" style="endArrow=none;html=1;rounded=0;entryX=0.428;entryY=0.98;entryDx=0;entryDy=0;entryPerimeter=0;exitX=0.653;exitY=-0.02;exitDx=0;exitDy=0;exitPerimeter=0;" parent="1" source="IqnL9jD0EgzMoAM63mxF-1" target="IqnL9jD0EgzMoAM63mxF-15" edge="1">
          <mxGeometry relative="1" as="geometry">
            <mxPoint x="320" y="150" as="sourcePoint" />
            <mxPoint x="480" y="150" as="targetPoint" />
          </mxGeometry>
        </mxCell>
        <mxCell id="IqnL9jD0EgzMoAM63mxF-9" value="fullname" style="ellipse;whiteSpace=wrap;html=1;align=center;" parent="1" vertex="1">
          <mxGeometry x="180" y="19.549999999999997" width="90" height="30" as="geometry" />
        </mxCell>
        <mxCell id="IqnL9jD0EgzMoAM63mxF-63" value="" style="endArrow=none;html=1;rounded=0;exitX=0.936;exitY=0.529;exitDx=0;exitDy=0;exitPerimeter=0;" parent="1" edge="1">
          <mxGeometry relative="1" as="geometry">
            <mxPoint x="231.16000000000008" y="286.74" as="sourcePoint" />
            <mxPoint x="372" y="287" as="targetPoint" />
          </mxGeometry>
        </mxCell>
        <mxCell id="IqnL9jD0EgzMoAM63mxF-64" value="" style="endArrow=none;html=1;rounded=0;" parent="1" edge="1">
          <mxGeometry relative="1" as="geometry">
            <mxPoint x="528" y="287" as="sourcePoint" />
            <mxPoint x="640.8299999999999" y="287.26" as="targetPoint" />
          </mxGeometry>
        </mxCell>
        <mxCell id="2VuwB4NRMP1wDdz1P-sN-1" value="" style="edgeStyle=entityRelationEdgeStyle;fontSize=12;html=1;endArrow=ERzeroToMany;endFill=1;rounded=0;entryX=0;entryY=0.5;entryDx=0;entryDy=0;entryPerimeter=0;exitX=1;exitY=0.5;exitDx=0;exitDy=0;" edge="1" parent="1" source="IqnL9jD0EgzMoAM63mxF-7" target="IqnL9jD0EgzMoAM63mxF-8">
          <mxGeometry width="100" height="100" relative="1" as="geometry">
            <mxPoint x="290" y="310" as="sourcePoint" />
            <mxPoint x="390" y="210" as="targetPoint" />
          </mxGeometry>
        </mxCell>
        <mxCell id="2VuwB4NRMP1wDdz1P-sN-2" value="" style="edgeStyle=entityRelationEdgeStyle;fontSize=12;html=1;endArrow=ERzeroToMany;endFill=1;rounded=0;entryX=1;entryY=0.5;entryDx=0;entryDy=0;exitX=0;exitY=0.5;exitDx=0;exitDy=0;" edge="1" parent="1" source="IqnL9jD0EgzMoAM63mxF-5" target="IqnL9jD0EgzMoAM63mxF-8">
          <mxGeometry width="100" height="100" relative="1" as="geometry">
            <mxPoint x="280" y="280" as="sourcePoint" />
            <mxPoint x="440" y="280" as="targetPoint" />
          </mxGeometry>
        </mxCell>
        <mxCell id="2VuwB4NRMP1wDdz1P-sN-3" value="" style="edgeStyle=entityRelationEdgeStyle;fontSize=12;html=1;endArrow=ERmandOne;rounded=0;entryX=0.5;entryY=1;entryDx=0;entryDy=0;exitX=0;exitY=0.5;exitDx=0;exitDy=0;" edge="1" parent="1" source="IqnL9jD0EgzMoAM63mxF-7" target="IqnL9jD0EgzMoAM63mxF-1">
          <mxGeometry width="100" height="100" relative="1" as="geometry">
            <mxPoint x="370" y="310" as="sourcePoint" />
            <mxPoint x="470" y="210" as="targetPoint" />
          </mxGeometry>
        </mxCell>
        <mxCell id="2VuwB4NRMP1wDdz1P-sN-4" value="" style="edgeStyle=entityRelationEdgeStyle;fontSize=12;html=1;endArrow=ERmandOne;rounded=0;entryX=0.5;entryY=1;entryDx=0;entryDy=0;exitX=1;exitY=0.5;exitDx=0;exitDy=0;" edge="1" parent="1" source="IqnL9jD0EgzMoAM63mxF-5" target="IqnL9jD0EgzMoAM63mxF-4">
          <mxGeometry width="100" height="100" relative="1" as="geometry">
            <mxPoint x="190" y="325" as="sourcePoint" />
            <mxPoint x="160" y="240" as="targetPoint" />
          </mxGeometry>
        </mxCell>
      </root>
    </mxGraphModel>
  </diagram>
</mxfile>
